HIERARCHY
ROOT root
{
	OFFSET	0	13.1	24.9
	CHANNELS 6  Xposition Yposition Zposition Xrotation Yrotation Zrotation
	JOINT spine_1
	{
		OFFSET	0	9.99999	0
		CHANNELS 3  Xrotation Yrotation Zrotation
		JOINT spine_2
		{
			OFFSET	0	112	-10
			CHANNELS 3  Xrotation Yrotation Zrotation
			JOINT spine_3
			{
				OFFSET	0	206.5	19.3
				CHANNELS 3  Xrotation Yrotation Zrotation
				JOINT spine_4
				{
					OFFSET	0	110.4	14.6
					CHANNELS 3  Xrotation Yrotation Zrotation
					JOINT neck_1
					{
						OFFSET	0	71.8	-50.3
						CHANNELS 3  Xrotation Yrotation Zrotation
						JOINT neck_2
						{
							OFFSET	0	86.2	-25.8
							CHANNELS 3  Xrotation Yrotation Zrotation
							JOINT head_ee
							{
								OFFSET	0	179.8	-8.7
								CHANNELS 3  Xrotation Yrotation Zrotation
								End Site
								{
									OFFSET	1	0	0
								}
							}
						}
					}
					JOINT left_clavicle
					{
						OFFSET	-43.2	22.4	-70.8
						CHANNELS 3  Xrotation Yrotation Zrotation
						JOINT left_shoulder
						{
							OFFSET	-93.9	-5.79999	48.7
							CHANNELS 3  Xrotation Yrotation Zrotation
							JOINT left_elbow
							{
								OFFSET	-291.4	-30.8	15.2
								CHANNELS 3  Xrotation Yrotation Zrotation
								JOINT left_lowarm_twist
								{
									OFFSET	-110.7	-3.89999	13.6
									CHANNELS 3  Xrotation Yrotation Zrotation
									JOINT left_hand
									{
										OFFSET	-110.7	-3.89999	13.6
										CHANNELS 3  Xrotation Yrotation Zrotation
										JOINT left_ee
										{
											OFFSET	-80.8	-5.10001	12.1
											CHANNELS 3  Xrotation Yrotation Zrotation
											End Site
											{
												OFFSET	1	0	0
											}
										}
									}
								}
							}
						}
					}
					JOINT right_clavicle
					{
						OFFSET	43.2	22.4	-70.8
						CHANNELS 3  Xrotation Yrotation Zrotation
						JOINT right_shoulder
						{
							OFFSET	93.9	-5.79999	48.7
							CHANNELS 3  Xrotation Yrotation Zrotation
							JOINT right_elbow
							{
								OFFSET	291.4	-30.8	15.2
								CHANNELS 3  Xrotation Yrotation Zrotation
								JOINT right_lowarm_twist
								{
									OFFSET	110.7	-3.89999	13.6
									CHANNELS 3  Xrotation Yrotation Zrotation
									JOINT right_hand
									{
										OFFSET	110.7	-3.89999	13.6
										CHANNELS 3  Xrotation Yrotation Zrotation
										JOINT right_ee
										{
											OFFSET	80.8	-5.10001	12.1
											CHANNELS 3  Xrotation Yrotation Zrotation
											End Site
											{
												OFFSET	1	0	0
											}
										}
									}
								}
							}
						}
					}
				}
			}
		}
	}
	JOINT left_hip
	{
		OFFSET	-82.8	-127.5	0.300001
		CHANNELS 3  Xrotation Yrotation Zrotation
		JOINT left_knee
		{
			OFFSET	-28.2	-396.7	2.2
			CHANNELS 3  Xrotation Yrotation Zrotation
			JOINT left_ankle
			{
				OFFSET	-11.7	-411.3	35.4
				CHANNELS 3  Xrotation Yrotation Zrotation
				JOINT left_toes
				{
					OFFSET	0	-60	-88.6
					CHANNELS 3  Xrotation Yrotation Zrotation
					JOINT left_foot_ee
					{
						OFFSET	-22.5	-16.5	-42.2
						CHANNELS 3  Xrotation Yrotation Zrotation
						End Site
						{
							OFFSET	1	0	0
						}
					}
				}
			}
		}
	}
	JOINT right_hip
	{
		OFFSET	82.8	-127.5	0.300001
		CHANNELS 3  Xrotation Yrotation Zrotation
		JOINT right_knee
		{
			OFFSET	28.2	-396.7	2.2
			CHANNELS 3  Xrotation Yrotation Zrotation
			JOINT right_ankle
			{
				OFFSET	11.7	-411.3	35.4
				CHANNELS 3  Xrotation Yrotation Zrotation
				JOINT right_toes
				{
					OFFSET	0	-60	-88.6
					CHANNELS 3  Xrotation Yrotation Zrotation
					JOINT right_foot_ee
					{
						OFFSET	22.5	-16.5	-42.2
						CHANNELS 3  Xrotation Yrotation Zrotation
						End Site
						{
							OFFSET	1	0	0
						}
					}
				}
			}
		}
	}
}
MOTION
Frames: 13
Frame Time: 0.02
1174.13927591 715.275 -1730.8622669 -3.98743202359 46.8164832143 -0.918832946826 -0.0513012 0.254616 1.11618 -0.0506266 0.183079 1.13012 -0.0465957 -0.0594594 1.14331 -0.0483995 0.121839 1.13835 4.00142 -7.52377 -5.65788 4.11098 -8.11524 -6.82902 -0.0 0.0 -0.0 5.32253 24.8196 9.99943 -16.754 -10.0403 58.3501 0.981585 -25.9308 0.225998 26.1263 0.169748 -3.30432 2.52988 2.18462 18.0207 -0.0 0.0 -0.0 -2.71157 -11.0418 3.31619 36.0642 81.574 -104.745 0.405015 11.345 -0.0402298 -85.3504 8.49569 -5.17584 -7.34721 -13.3766 45.9075 0.0 0.0 0.0 30.3173 -15.5312 12.5106 -49.214 -1.15441 7.23621 -14.3013 14.6032 2.15373 17.0746 -0.0 -0.0 -0.0 0.0 -0.0 -3.78236 56.299 -0.284048 6.58505 0.32661 0.956821 18.4763 -19.9723 2.60376 25.5827 -0.0 -0.0 0.0 0.0 0.0 
1164.43629746 727.876 -1749.61158941 -3.47549810884 47.4867017961 -1.42716267225 -0.0822269 0.287287 1.37059 -0.0812039 0.199499 1.38609 -0.0757528 -0.0981266 1.39693 -0.0784545 0.123702 1.3949 2.78193 -7.6527 -6.16313 2.90264 -8.10963 -7.40231 -0.0 0.0 -0.0 5.174 24.2135 9.82433 -18.9462 -9.24497 58.3338 0.909921 -24.2631 0.195598 25.5362 0.182615 -3.23004 2.84859 2.02696 20.207 -0.0 0.0 -0.0 -4.16379 -4.65265 7.17288 34.8261 74.8895 -98.4615 0.438404 12.253 -0.0470572 -85.0623 8.45971 -5.18305 -7.05936 -12.8223 43.7846 0.0 0.0 0.0 32.0421 -12.1448 9.6078 -51.9021 -1.39183 7.57532 -12.4836 11.7392 1.86932 15.8042 -0.0 -0.0 -0.0 0.0 -0.0 -4.57113 55.1524 -0.979605 6.39763 0.315799 0.930125 17.5761 -20.7389 2.49363 26.1911 -0.0 -0.0 0.0 0.0 0.0 
1143.8228302 721.014 -1759.85984757 -2.10655201346 49.7908800878 -2.16109616561 -0.154836 0.308865 1.57313 -0.153484 0.20815 1.58959 -0.146872 -0.134697 1.59749 -0.150414 0.119254 1.59872 3.37838 -8.32523 -6.17666 3.5125 -9.16629 -7.45998 -0.0 0.0 -0.0 4.99937 23.9212 9.59465 -19.3446 -8.87745 58.3547 0.878091 -23.5078 0.182709 24.5229 0.202925 -3.10219 2.78218 1.70488 19.6112 -0.0 0.0 -0.0 -3.89619 -1.22903 7.34196 29.0245 71.7135 -92.3301 0.521313 14.4801 -0.0662277 -85.4434 8.5073 -5.17347 -6.83741 -13.1504 41.4973 0.0 0.0 0.0 31.3899 -10.0283 7.94329 -49.6983 -1.196 7.29811 -11.1951 10.9011 1.67279 13.721 -0.0 -0.0 -0.0 0.0 -0.0 -4.70129 53.5967 -2.1805 6.08537 0.297982 0.885568 15.4389 -20.9986 2.21098 26.7157 -0.0 -0.0 0.0 0.0 0.0 
1121.64606586 718.372 -1762.92270883 -1.90897419757 51.8405234067 -3.07735279402 -0.199495 0.364228 1.91971 -0.197477 0.241357 1.93899 -0.188052 -0.177972 1.94583 -0.193311 0.131509 1.94952 4.13357 -9.27939 -6.19844 4.29265 -10.6626 -7.5338 -0.0 0.0 -0.0 4.75676 23.5012 9.27118 -19.5574 -8.43541 58.3988 0.833856 -22.4438 0.165442 23.0756 0.228004 -2.91902 2.69106 1.23665 18.7847 -0.0 0.0 -0.0 -3.73326 3.6326 7.91959 22.6518 67.0538 -84.7451 0.643046 17.6692 -0.0999474 -86.0082 8.57771 -5.15869 -6.50486 -13.6166 38.2593 0.0 0.0 0.0 30.3403 -6.41899 7.4669 -46.6994 -0.947011 6.90938 -9.29233 9.70174 1.3842 10.7842 -0.0 -0.0 -0.0 0.0 -0.0 -2.62944 51.5147 -6.02376 5.93699 0.289601 0.864362 12.3405 -21.2588 1.78897 27.4486 -0.0 -0.0 0.0 0.0 0.0 
1111.3168563 712.809 -1777.60162702 -0.0156017177294 52.3499250791 -3.05409328095 -0.314572 0.377268 1.69299 -0.313017 0.26879 1.71356 -0.303901 -0.106539 1.73123 -0.308045 0.168173 1.72634 4.35983 -10.5525 -6.35176 4.56364 -12.6879 -7.76723 -0.0 0.0 -0.0 4.28128 22.8199 8.61851 -19.5799 -8.00632 57.9163 0.772441 -20.939 0.14274 21.9216 0.244679 -2.77256 2.80294 -0.482395 18.894 -0.0 0.0 -0.0 -3.08929 6.63749 7.11058 25.513 65.5625 -85.1692 0.557884 15.4488 -0.0756715 -85.0224 8.45472 -5.18403 -5.98361 -11.9378 35.4229 0.0 0.0 0.0 28.6792 -11.069 7.94553 -39.3316 -0.424789 5.90449 -6.73001 15.7961 1.00627 6.2414 -0.0 -0.0 -0.0 0.0 -0.0 -2.56847 50.6187 -6.88484 5.15669 0.246434 0.7525 8.98502 -22.0363 1.32122 28.5077 -0.0 -0.0 0.0 0.0 0.0 
1105.58527981 711.076 -1788.16769854 -0.595632067531 52.5419479449 -2.98043998963 -0.760996 0.485724 2.12643 -0.758548 0.349462 2.15301 -0.743386 -0.139089 2.17674 -0.749939 0.206348 2.1714 3.384 -11.7922 -6.21737 3.63922 -15.1817 -7.70702 -0.0 0.0 -0.0 4.12275 22.7094 8.39592 -19.5422 -7.6862 58.3379 0.7685 -20.8414 0.141335 20.3596 0.262545 -2.57384 3.0015 -3.46525 19.0794 -0.0 0.0 -0.0 -2.53104 8.78341 6.28543 27.532 63.4383 -84.0549 0.387682 10.8713 -0.0368902 -82.4898 8.13677 -5.2393 -5.23565 -9.56928 31.3403 0.0 0.0 0.0 26.3599 -17.7574 8.36864 -27.7188 0.12466 4.21064 -2.92249 24.4771 0.447723 -0.248543 0.0 0.0 -0.0 0.0 -0.0 -2.39624 49.3428 -8.24193 4.05199 0.187943 0.59317 4.41168 -23.0615 0.660256 30.3126 -0.0 -0.0 0.0 0.0 0.0 
1096.28547732 720.174 -1800.57303678 0.136792178586 52.0346188312 -3.33807119857 -1.3463 0.525512 2.28902 -1.34347 0.378831 2.3178 -1.3253 -0.170986 2.34231 -1.3329 0.20098 2.33993 1.95677 -11.3791 -6.94725 2.18922 -14.1595 -8.54805 -0.0 0.0 -0.0 3.85303 22.2424 8.01566 -19.4706 -7.30073 58.7526 0.76351 -20.7176 0.139565 19.5038 0.270033 -2.4648 2.95541 -7.56321 16.9847 -0.0 0.0 -0.0 -2.5374 9.36217 6.38505 29.9159 62.7086 -84.3812 0.350492 9.84991 -0.0302017 -80.8178 7.92549 -5.26798 -4.38511 -7.52959 26.3177 0.0 0.0 0.0 27.2489 -20.4167 7.85472 -21.9209 0.267872 3.33278 2.84752 28.3473 -0.440426 -5.61995 0.0 0.0 -0.0 0.0 -0.0 -4.69493 49.2213 -6.81118 2.3295 0.102914 0.342613 2.7398 -23.6528 0.412926 31.1732 -0.0 -0.0 0.0 0.0 0.0 
1077.02080146 712.443 -1813.47147343 -0.550152238884 52.3292958801 -3.00199500671 -1.40834 0.448672 2.27883 -1.4055 0.302794 2.30274 -1.39057 -0.244122 2.3097 -1.39799 0.123614 2.31926 2.80416 -12.1886 -9.58986 3.10651 -13.0984 -11.5076 -0.0 0.0 -0.0 3.71085 21.3493 7.80922 -18.9623 -6.88457 59.2195 0.762968 -20.7041 0.139373 18.1446 0.278578 -2.2914 2.59294 -7.73315 14.3702 -0.0 0.0 -0.0 -2.64789 10.1791 6.73833 33.0772 61.6805 -84.6329 0.298425 8.40938 -0.0219396 -80.406 7.87333 -5.27409 -3.1903 -2.14829 20.7368 0.0 0.0 0.0 26.6374 -21.0072 7.19664 -17.1172 0.318818 2.5977 10.758 28.5378 -1.63016 -11.7457 0.0 0.0 -0.0 0.0 -0.0 -4.84965 48.4307 -7.37346 0.144038 0.00595779 0.021301 2.22587 -24.3621 0.337058 32.1917 -0.0 -0.0 0.0 0.0 0.0 
1074.7774994 712.443 -1811.50164929 -0.554945258472 52.7103751352 -2.99595517524 -1.40834 0.448672 2.27883 -1.4055 0.302794 2.30274 -1.39057 -0.244122 2.3097 -1.39799 0.123614 2.31926 2.80416 -12.1886 -9.58986 3.10651 -13.0984 -11.5076 -0.0 0.0 -0.0 3.71085 21.3493 7.80922 -18.9623 -6.88457 59.2195 0.762968 -20.7041 0.139373 18.1446 0.278578 -2.2914 2.59294 -7.73315 14.3702 -0.0 0.0 -0.0 -2.64789 10.1791 6.73833 33.0772 61.6805 -84.6329 0.298425 8.40938 -0.0219396 -80.406 7.87333 -5.27409 -3.1903 -2.14829 20.7368 0.0 0.0 0.0 26.6374 -21.0072 7.19664 -17.1172 0.318818 2.5977 10.758 28.5378 -1.63016 -11.7457 0.0 0.0 -0.0 0.0 -0.0 -4.84965 48.4307 -7.37346 0.144038 0.00595779 0.021301 2.22587 -24.3621 0.337058 32.1917 -0.0 -0.0 0.0 0.0 0.0 
1065.48694424 699.179 -1825.48849357 0.640005422768 51.5700493818 -4.14399654056 -1.61263 0.328851 2.2183 -1.60991 0.187064 2.23472 -1.6 -0.348914 2.21523 -1.60685 0.00522796 2.24253 3.60222 -12.0062 -10.0992 3.90817 -12.1123 -12.0733 -0.0 0.0 -0.0 3.63995 20.7377 7.70146 -19.1423 -5.99766 59.9051 0.737739 -20.075 0.130583 16.6251 0.283257 -2.09739 2.32002 -9.26021 11.81 -0.0 0.0 -0.0 -2.78853 10.9683 7.15225 34.4604 61.0969 -84.9556 0.28151 7.93899 -0.0195345 -80.2158 7.84921 -5.27678 -2.14644 2.5701 15.6999 0.0 0.0 0.0 26.7103 -21.2266 7.50099 -11.5585 0.300717 1.74534 12.42 29.6038 -1.88568 -15.5458 0.0 0.0 -0.0 0.0 -0.0 -5.958 48.0873 -7.11772 -2.37539 -0.09049 -0.353287 4.08609 -25.7326 0.620371 31.0324 -0.0 -0.0 0.0 0.0 0.0 
1060.51059583 699.179 -1821.06985817 0.651816588399 52.3891652369 -4.15898891189 -1.61263 0.328851 2.2183 -1.60991 0.187064 2.23472 -1.6 -0.348914 2.21523 -1.60685 0.00522796 2.24253 3.60222 -12.0062 -10.0992 3.90817 -12.1123 -12.0733 -0.0 0.0 -0.0 3.63995 20.7377 7.70146 -19.1423 -5.99766 59.9051 0.737739 -20.075 0.130583 16.6251 0.283257 -2.09739 2.32002 -9.26021 11.81 -0.0 0.0 -0.0 -2.78853 10.9683 7.15225 34.4604 61.0969 -84.9556 0.28151 7.93899 -0.0195345 -80.2158 7.84921 -5.27678 -2.14644 2.5701 15.6999 0.0 0.0 0.0 26.7103 -21.2266 7.50099 -11.5585 0.300717 1.74534 12.42 29.6038 -1.88568 -15.5458 0.0 0.0 -0.0 0.0 -0.0 -5.958 48.0873 -7.11772 -2.37539 -0.09049 -0.353287 4.08609 -25.7326 0.620371 31.0324 -0.0 -0.0 0.0 0.0 0.0 
1057.53936863 699.179 -1818.37009472 0.659220840956 52.8832917782 -4.16830471158 -1.61263 0.328851 2.2183 -1.60991 0.187064 2.23472 -1.6 -0.348914 2.21523 -1.60685 0.00522796 2.24253 3.60222 -12.0062 -10.0992 3.90817 -12.1123 -12.0733 -0.0 0.0 -0.0 3.63995 20.7377 7.70146 -19.1423 -5.99766 59.9051 0.737739 -20.075 0.130583 16.6251 0.283257 -2.09739 2.32002 -9.26021 11.81 -0.0 0.0 -0.0 -2.78853 10.9683 7.15225 34.4604 61.0969 -84.9556 0.28151 7.93899 -0.0195345 -80.2158 7.84921 -5.27678 -2.14644 2.5701 15.6999 0.0 0.0 0.0 26.7103 -21.2266 7.50099 -11.5585 0.300717 1.74534 12.42 29.6038 -1.88568 -15.5458 0.0 0.0 -0.0 0.0 -0.0 -5.958 48.0873 -7.11772 -2.37539 -0.09049 -0.353287 4.08609 -25.7326 0.620371 31.0324 -0.0 -0.0 0.0 0.0 0.0 
1054.29383838 699.179 -1815.36694839 0.667631451302 53.427539187 -4.1788143746 -1.61263 0.328851 2.2183 -1.60991 0.187064 2.23472 -1.6 -0.348914 2.21523 -1.60685 0.00522796 2.24253 3.60222 -12.0062 -10.0992 3.90817 -12.1123 -12.0733 -0.0 0.0 -0.0 3.63995 20.7377 7.70146 -19.1423 -5.99766 59.9051 0.737739 -20.075 0.130583 16.6251 0.283257 -2.09739 2.32002 -9.26021 11.81 -0.0 0.0 -0.0 -2.78853 10.9683 7.15225 34.4604 61.0969 -84.9556 0.28151 7.93899 -0.0195345 -80.2158 7.84921 -5.27678 -2.14644 2.5701 15.6999 0.0 0.0 0.0 26.7103 -21.2266 7.50099 -11.5585 0.300717 1.74534 12.42 29.6038 -1.88568 -15.5458 0.0 0.0 -0.0 0.0 -0.0 -5.958 48.0873 -7.11772 -2.37539 -0.09049 -0.353287 4.08609 -25.7326 0.620371 31.0324 -0.0 -0.0 0.0 0.0 0.0 
